<svg width="200" height="80" viewBox="0 0 200 80" fill="none" xmlns="http://www.w3.org/2000/svg">
  <path d="M48.8 62.4C44.8 65.4667 40.1333 67 34.8 67C24.4 67 17.6667 60.1333 17.6667 50C17.6667 39.8667 24.4 33 34.8 33C40.1333 33 44.8 34.5333 48.8 37.6V33.8H59.2V66.2H48.8V62.4ZM34.8 58.2C40.6667 58.2 44.8 54.4667 44.8 50C44.8 45.5333 40.6667 41.8 34.8 41.8C28.9333 41.8 24.8 45.5333 24.8 50C24.8 54.4667 28.9333 58.2 34.8 58.2Z" fill="#005596"/>
  <path d="M106.4 50C106.4 59.4667 100.4 67 90.8 67C81.2 67 75.2 60 75.2 50C75.2 40 81.2 33 90.8 33C100.4 33 106.4 40.5333 106.4 50ZM85.6 50C85.6 55.4667 87.7333 58.6 90.8 58.6C93.8667 58.6 96 55.4667 96 50C101.467 50 106.4 53.6 106.4 50ZM106.4 50H85.6C85.6 44.5333 87.7333 41.4 90.8 41.4C93.8667 41.4 96 44.5333 96 50H106.4Z" fill="#00BCE4"/>
  <path d="M148.8 67C136.133 67 127.333 58.4667 127.333 50.1333C127.333 41.8 136.133 33 148.8 33C155.867 33 162.133 35.3333 167.333 39.4667L161.467 46.5333C158 43.6 154 42.1333 149.333 42.1333C142.133 42.1333 138 45.7333 138 50.1333C138 54.5333 142.133 58.1333 149.333 58.1333C154 58.1333 158.4 56.6667 162.267 53.4667L168.133 60.5333C162.933 64.6667 156.4 67 148.8 67Z" fill="#005596"/>
</svg>
